<svg xmlns="http://www.w3.org/2000/svg" width="256" height="256" viewBox="0 0 256 256" fill="none">
  <defs>
    <linearGradient id="g1" x1="0" y1="0" x2="1" y2="1">
      <stop offset="0%" stop-color="#2563eb"/>
      <stop offset="100%" stop-color="#06b6d4"/>
    </linearGradient>
    <filter id="shadow" x="-20%" y="-20%" width="140%" height="140%">
      <feDropShadow dx="0" dy="8" stdDeviation="10" flood-color="rgba(2,6,23,0.35)"/>
    </filter>
  </defs>
  <rect rx="48" ry="48" x="16" y="16" width="224" height="224" fill="url(#g1)" filter="url(#shadow)"/>
  <!-- Share pin mark -->
  <g transform="translate(64,54)">
    <path d="M64 0c26.5 0 48 21.5 48 48s-21.5 48-48 48S16 74.5 16 48 37.5 0 64 0z" fill="white" opacity="0.14"/>
    <circle cx="96" cy="24" r="12" fill="#fff"/>
    <circle cx="32" cy="48" r="12" fill="#fff"/>
    <circle cx="100" cy="88" r="12" fill="#fff"/>
    <path d="M42 48c20-16 42-32 54-26M44 60c22 10 46 26 56 32" stroke="#fff" stroke-width="10" stroke-linecap="round"/>
  </g>
</svg>
